<?xml version="1.0" standalone="no"?>
<!DOCTYPE svg PUBLIC "-//W3C//DTD SVG 20010904//EN"
 "http://www.w3.org/TR/2001/REC-SVG-20010904/DTD/svg10.dtd">
<svg version="1.0" xmlns="http://www.w3.org/2000/svg"
 width="570.000000pt" height="570.000000pt" viewBox="0 0 570.000000 570.000000"
 preserveAspectRatio="xMidYMid meet">
<metadata>
Created by potrace 1.14, written by Peter Selinger 2001-2017
</metadata>
<g transform="translate(0.000000,570.000000) scale(0.100000,-0.100000)"
fill="#000000" stroke="none">
<path d="M2922 5238 c-4 -3 -32 -9 -62 -12 -57 -5 -70 -8 -155 -27 -302 -66
-578 -230 -751 -446 -22 -26 -42 -50 -45 -53 -36 -30 -208 -401 -222 -481 -3
-13 -10 -44 -17 -69 -7 -25 -13 -54 -15 -65 -4 -33 -32 -120 -50 -156 -20 -39
-67 -84 -110 -106 -56 -29 -75 -52 -68 -87 14 -79 92 -189 178 -252 22 -16 42
-31 45 -34 10 -10 99 -51 120 -55 11 -2 25 -7 31 -10 5 -4 20 -8 32 -10 21 -3
42 -8 97 -21 14 -3 50 -9 80 -12 l55 -7 -2 -90 c-9 -392 -6 -492 20 -560 45
-122 224 -252 457 -334 36 -13 72 -26 80 -29 8 -3 22 -6 30 -8 8 -2 31 -6 50
-10 19 -4 40 -7 45 -6 6 1 1 -4 -9 -13 -11 -8 -36 -17 -55 -21 -20 -3 -52 -11
-71 -17 -19 -6 -37 -12 -40 -12 -14 -2 -120 -39 -150 -53 -95 -41 -228 -106
-250 -122 -14 -10 -29 -19 -35 -20 -17 -4 -175 -110 -279 -189 -93 -70 -102
-74 -150 -74 -28 0 -80 8 -116 18 -36 9 -98 19 -138 21 -67 3 -76 1 -98 -21
-84 -84 78 -303 294 -396 26 -12 55 -22 65 -24 40 -9 57 -17 57 -29 0 -11 56
-60 70 -61 3 0 16 -7 30 -15 14 -7 26 -12 28 -11 1 1 28 -1 59 -5 158 -19 316
14 439 92 55 35 79 36 89 3 13 -40 139 -155 202 -184 35 -16 64 -36 66 -47 3
-9 4 -58 2 -109 -3 -74 -7 -93 -22 -104 -54 -40 -381 -187 -408 -184 -3 0 -24
-3 -48 -7 -47 -8 -66 -11 -116 -18 -90 -14 -185 -50 -223 -86 -21 -20 -38 -44
-38 -52 0 -30 38 -64 87 -76 50 -13 112 -11 383 13 134 12 304 7 370 -11 14
-4 72 -8 130 -10 90 -2 110 1 141 18 79 44 72 114 -30 278 -39 63 -49 97 -45
155 13 191 10 181 62 190 19 3 61 17 95 30 65 27 92 31 102 15 3 -5 15 -10 26
-10 24 0 25 -4 14 -100 -4 -36 -8 -75 -8 -87 -1 -13 -4 -23 -7 -23 -3 0 -6 -8
-6 -17 -2 -46 -17 -83 -54 -135 -33 -47 -39 -63 -35 -93 9 -70 85 -133 230
-190 91 -36 216 -67 225 -56 3 4 16 7 30 8 24 1 63 8 105 18 11 2 39 9 63 15
104 25 150 28 277 16 142 -14 209 -11 238 10 16 12 24 26 22 39 -2 11 -4 23
-4 26 -2 13 -57 62 -81 71 -66 25 -246 70 -335 83 -22 3 -53 8 -70 10 -16 3
-51 7 -76 9 -26 3 -71 16 -100 30 -56 27 -180 103 -189 116 -3 4 -16 13 -29
20 -22 11 -23 16 -17 64 3 28 8 60 10 71 3 11 5 28 5 37 1 18 14 24 81 34 25
3 50 7 55 8 24 5 89 37 117 57 30 22 31 22 99 5 59 -16 153 -22 199 -13 35 7
93 42 113 69 26 35 27 43 11 85 -11 28 -10 33 4 38 23 7 103 83 133 125 52 73
72 138 67 220 -4 62 -11 87 -41 145 -86 164 -281 301 -557 395 -66 22 -105 40
-105 49 0 9 28 22 75 36 41 13 100 33 130 45 30 12 70 28 88 34 18 7 38 18 44
24 7 7 17 12 23 12 28 1 178 112 247 184 45 45 98 149 105 203 7 53 7 208 -1
268 -8 67 -12 85 -36 174 -11 42 -22 87 -26 101 -3 14 -9 34 -14 45 -5 11 -14
38 -20 60 -6 22 -15 49 -20 60 -5 11 -20 47 -33 81 l-24 61 31 34 c54 58 104
135 145 223 38 79 44 96 57 171 10 52 11 130 2 142 -5 6 -5 14 2 18 6 3 8 11
4 16 -3 5 -7 22 -10 37 -2 15 -6 41 -8 57 -7 48 -60 187 -90 233 -14 23 -26
44 -26 48 0 3 -10 18 -22 33 -13 16 -36 45 -53 66 -82 105 -217 206 -379 284
-119 57 -266 116 -266 105 0 -2 -9 0 -19 6 -33 17 -271 63 -338 64 -13 1 -23
3 -23 6 0 3 -22 5 -50 6 -27 0 -47 -2 -45 -5 1 -3 -8 -6 -21 -6 -13 0 -24 5
-24 10 0 6 -5 3 -10 -5 -5 -8 -10 -10 -10 -5 0 12 -56 14 -68 3z"/>
</g>
</svg>
